<svg data-name="Layer 1" xmlns="http://www.w3.org/2000/svg" viewBox="0 0 64 64"><title>New_icon_set_simple_new2</title><path class="cls-1" d="M62.81 59.41a7.55 7.55 0 0 0-4.48 1.36 5.68 5.68 0 0 1-6.47 0 8 8 0 0 0-8.95 0 5.67 5.67 0 0 1-6.46 0 8 8 0 0 0-8.94 0 5.25 5.25 0 0 1-3.23 1 5.24 5.24 0 0 1-3.23-1 7.54 7.54 0 0 0-4.47-1.36 7.54 7.54 0 0 0-4.47 1.36 5.24 5.24 0 0 1-3.23 1 5.25 5.25 0 0 1-3.23-1 7.53 7.53 0 0 0-4.47-1.36 1.19 1.19 0 0 0 0 2.37 5.24 5.24 0 0 1 3.23 1 7.54 7.54 0 0 0 4.47 1.36 7.54 7.54 0 0 0 4.47-1.36 5.24 5.24 0 0 1 3.23-1 5.25 5.25 0 0 1 3.23 1 7.53 7.53 0 0 0 4.47 1.36 7.53 7.53 0 0 0 4.47-1.36 5.67 5.67 0 0 1 6.46 0 8 8 0 0 0 8.94 0 5.68 5.68 0 0 1 6.47 0 8 8 0 0 0 9 0 5.26 5.26 0 0 1 3.23-1 1.19 1.19 0 0 0-.04-2.37z"/><path class="cls-1" d="M27.52 20.38l5-1.13a1.18 1.18 0 1 0-.53-2.3l-2.36.55C33.34 12.28 40 12 40.33 12a1.15 1.15 0 0 0 1.09-.76 1.06 1.06 0 0 0-.36-1.22l-5-4a11.37 11.37 0 0 1 7 2.22 1.11 1.11 0 0 0 .91.14A1.19 1.19 0 0 0 44.8 8a18.42 18.42 0 0 1 5.65-4.74L49.1 8.55a1.19 1.19 0 0 0 1.73 1.32 7.41 7.41 0 0 1 8.33 1l-4.79 1a1.19 1.19 0 0 0-.31 2.21c.06 0 4.85 2.63 6.86 6.72l-4.84-1.62a1.17 1.17 0 0 0-.5-.05 8.41 8.41 0 0 0-2.15-2.51A1.19 1.19 0 0 0 52 18.51c2.6 2 3.46 7 3.67 10.6L44.83 17.46a1.19 1.19 0 0 0-1.86.15c-2.33 3.52-5.8 8.67-7.85 11.57-.83-8.76 3.71-12 3.94-12.18a1.19 1.19 0 0 0-1.32-2c-.29.19-7 4.85-4.53 17.34a1.19 1.19 0 0 0 2 .61c.95-.95 5.54-7.76 8.16-11.68a30.7 30.7 0 0 1-6.22 28.88c-1.67-.17-3.46-.26-5.39-.26a38.18 38.18 0 0 0-9.9 1.26 14.54 14.54 0 0 1-5.46-14.51l5.66 6.45a1.19 1.19 0 0 0 2-.36c.3-.73 2.94-7.9-.78-10.43a1.19 1.19 0 0 0-1.34 2c1.25.86 1 3.56.49 5.7l-5.72-6.52a1.18 1.18 0 0 0-.88-.4 1.17 1.17 0 0 0-.89.39s-3.09 3.44-5.67 6.43c.48-5 2.59-6.57 2.66-6.63a1.19 1.19 0 0 0-1.27-2c-.17.11-4.24 2.74-3.83 12a1.19 1.19 0 0 0 2.1.7c1.27-1.56 3.24-3.82 4.88-5.68A16.9 16.9 0 0 0 19.19 52a26.3 26.3 0 0 0-10.61 6.64 1.19 1.19 0 0 0 1.8 1.55c.07-.08 7-7.88 21.38-7.88 17.09 0 22.93 7.73 23 7.8a1.19 1.19 0 0 0 1.93-1.38c-.21-.3-4.6-6.23-16.77-8.17A33.4 33.4 0 0 0 46 22.22L56 33a1.19 1.19 0 0 0 2.05-.75 32.33 32.33 0 0 0-1.24-10.29l5.61 1.87a1.19 1.19 0 0 0 1.58-1.4c-.81-4.06-4-7.11-6.31-8.84l4-.85a1.19 1.19 0 0 0 .69-1.89A9.83 9.83 0 0 0 52 6.93l1.34-5.3A1.19 1.19 0 0 0 51.86.18C48 1.14 45 4.11 43.66 5.64a13.87 13.87 0 0 0-10.73-1.91 1.19 1.19 0 0 0-.51 2.07l5 4.2c-3.32.71-8.7 2.78-11.3 8.75a1.19 1.19 0 0 0 1.4 1.63z"/><path class="cls-1" d="M1.71 27.81l4.41 1.28a12.28 12.28 0 0 0-4.8 5.55 1.19 1.19 0 0 0 1.45 1.56c1.17-.36 3.38-.87 3.4-.88A1.19 1.19 0 0 0 5.63 33l-.63.17a13.7 13.7 0 0 1 4.69-3.31 1.19 1.19 0 0 0-.1-2.24l-3.9-1.13c2.09-.61 4.89-1 7.25.2a1.19 1.19 0 0 0 1.66-1.43 34.79 34.79 0 0 1-.82-3.63 8.8 8.8 0 0 1 3.22 3.8 1.19 1.19 0 0 0 1.12.83A1.1 1.1 0 0 0 19 26a13.9 13.9 0 0 1 5.34-1c-1 .87-2.28 2-3.5 3a1.19 1.19 0 0 0 .63 2 8.69 8.69 0 0 1 6.7 4.92l-.62-.21a1.19 1.19 0 0 0-.76 2.29l2.74.94a1.19 1.19 0 0 0 1.69-1.32 11.12 11.12 0 0 0-7.14-8.33c4.28-3.64 4.25-3.73 4-4.54a1.2 1.2 0 0 0-.82-.75 16.51 16.51 0 0 0-8.51.47c-1.76-3.07-5.87-5.19-6.07-5.29A1.19 1.19 0 0 0 11 19.41c0 .14.39 2.41.81 4.38-4.98-1.09-10.1 1.71-10.35 1.85a1.19 1.19 0 0 0 .25 2.17z"/></svg>