<svg data-name="Layer 1" xmlns="http://www.w3.org/2000/svg" viewBox="0 0 64 64"><title>New_icon_set_simple_new2</title><path class="cls-1" d="M52 19h-1.12v-3a5.59 5.59 0 0 0-5.8-5.33H34.65A5.59 5.59 0 0 0 28.86 16v3H27.7a5.87 5.87 0 0 0-5.8 5.93v4.35a4.61 4.61 0 0 0-1.09.15 7 7 0 0 0-3.57.14h-.13c-2.46 1-3.91 2.55-4.32 4.67a7.26 7.26 0 0 0 0 2.64 6.54 6.54 0 0 0-2.79-.69 6.45 6.45 0 0 0-4.56 2.08l-.1.11a5.67 5.67 0 0 0-1.39 3 5.77 5.77 0 0 0-1.1 3.12 1.17 1.17 0 0 0 0 .15C2.9 47 3.9 50.76 9.73 51.1a8.13 8.13 0 0 0-2.1 2.73 6.31 6.31 0 0 0 .48 5.9l.08.13a5.51 5.51 0 0 0 2.5 2.07 5.41 5.41 0 0 0 2.7 1.82h.14a8 8 0 0 0 1.7.2 5.65 5.65 0 0 0 4.43-2 8.44 8.44 0 0 0 1.28-2A7.89 7.89 0 0 0 22 61.78 5.75 5.75 0 0 0 26.71 64h.53a1.13 1.13 0 0 0 .45.09H52a5.87 5.87 0 0 0 5.8-5.93V24.91A5.87 5.87 0 0 0 52 19zM20.91 51.6a4.3 4.3 0 1 1 4.21-4.3 4.26 4.26 0 0 1-4.21 4.3zM26 43.12l.18-.26c2-2.28 4.48-4.36 6.65-4.36a3.65 3.65 0 0 1 2.87 1.6 3.92 3.92 0 0 1 .62 1.75 1.2 1.2 0 0 0 .31 1.36 3.2 3.2 0 0 1 .37 1.85c-.42 2.6-2 3.82-4.88 3.82A14.5 14.5 0 0 1 29 48.5c-.54-.27-1.07-.51-1.6-.73v-.46a6.73 6.73 0 0 0-1.4-4.19zM38.62 42a5.78 5.78 0 0 0-1-3.16l-.09-.13a5.91 5.91 0 0 0-4.73-2.55 7.91 7.91 0 0 0-4.1 1.34 7.73 7.73 0 0 0 .17-3.11h26.65v13H38.67a8.14 8.14 0 0 0 .6-2.07 1.17 1.17 0 0 0 0-.15 5.71 5.71 0 0 0-.65-3.17zm-7.44-26a3.25 3.25 0 0 1 3.48-3h10.43a3.25 3.25 0 0 1 3.48 3v3H31.18v-3zm-3.48 5.35H52a3.52 3.52 0 0 1 3.48 3.56V32h-27.6a7.39 7.39 0 0 0-3.34-2.43h-.32v-4.6a3.52 3.52 0 0 1 3.48-3.62zM15.07 34.72c.25-1.28 1.17-2 2.82-2.72a4.8 4.8 0 0 1 2.24 0 1.73 1.73 0 0 0 1.27-.13 1.24 1.24 0 0 1 .78-.21 6.07 6.07 0 0 1 1.57.19c1.65.67 2.57 1.6 2.82 2.87.37 1.92-.76 4.4-2.24 6.67l-.12.15a6.35 6.35 0 0 0-6.32-.15 21.45 21.45 0 0 0-1.78-2.08 7.65 7.65 0 0 1-1.04-4.59zm-9.91 9.84a4.57 4.57 0 0 1 .54-1.87.93.93 0 0 0 .56-1.18 3.09 3.09 0 0 1 .83-1.59A4.17 4.17 0 0 1 10 38.55a6.54 6.54 0 0 1 4.22 2.2 24.22 24.22 0 0 0 1.53 2.5 6.72 6.72 0 0 0-1.35 4.05 6.8 6.8 0 0 0 .07.94l-.29.12a20.47 20.47 0 0 1-3.58.36c-4.72 0-5.38-2.37-5.44-4.16zm12.77 15.83a3.69 3.69 0 0 1-3.84 1.09 3 3 0 0 1-1.54-1 1 1 0 0 0-1-.8 2.86 2.86 0 0 1-1.43-1.23 4 4 0 0 1-.35-3.67c.75-1.68 2.76-3.06 5-4.11l.54-.12a6.54 6.54 0 0 0 4.54 3.27c0 .46 0 .92.08 1.38a10.42 10.42 0 0 1-2 5.19zm4.26-5.07c.07-.51.13-1 .17-1.51a6.57 6.57 0 0 0 4.35-3.45c.48.14 1 .28 1.48.4 2.12 1.09 4 2.48 4.65 4.13a3.89 3.89 0 0 1-.61 3.67 3.8 3.8 0 0 1-1.56 1.23 1 1 0 0 0-1.13.71 3.15 3.15 0 0 1-1.74 1 6.44 6.44 0 0 1-1.09.1 3.5 3.5 0 0 1-2.89-1.31 9.6 9.6 0 0 1-1.62-4.98zM52 61.65H32.19A7.24 7.24 0 0 0 34 60l.09-.12A6.24 6.24 0 0 0 35 54a7.89 7.89 0 0 0-2-2.8 7.14 7.14 0 0 0 3.85-1.42h18.67v8.3A3.52 3.52 0 0 1 52 61.65zM30 2.39h8.11v5.92a1.16 1.16 0 1 0 2.32 0V2.39h7S52 2.49 52 4.76a1.16 1.16 0 1 0 2.32 0C54.36 1 50 0 47.41 0H30a1.17 1.17 0 0 0-1.14 1.2A1.17 1.17 0 0 0 30 2.39z"/></svg>