<svg data-name="Layer 1" xmlns="http://www.w3.org/2000/svg" viewBox="0 0 64 64"><title>New_icon_set_simple_new2</title><path class="cls-1" d="M58.07 8.6H43.26a2.49 2.49 0 0 1-1.62-1.49l-1.69-4a5.11 5.11 0 0 0-4.39-3h-8.3a5.1 5.1 0 0 0-4.39 3l-1.69 4a2.49 2.49 0 0 1-1.62 1.49H5.93a6 6 0 0 0-5.93 6v38.68a6 6 0 0 0 5.93 6h52.14a6 6 0 0 0 5.93-6V14.64a6 6 0 0 0-5.93-6.04zm-34.71-.53l1.69-4a2.73 2.73 0 0 1 2.21-1.49h8.3a2.73 2.73 0 0 1 2.21 1.49l1.69 4a5.08 5.08 0 0 0 .27.54H23.09a5.09 5.09 0 0 0 .27-.54zM5.93 11h52.14a3.59 3.59 0 0 1 3.56 3.62v8.45H2.37v-8.43A3.59 3.59 0 0 1 5.93 11zm52.14 45.9H5.93a3.59 3.59 0 0 1-3.56-3.62V25.51h59.26v27.77a3.59 3.59 0 0 1-3.56 3.62zm-41.48 4.83H9.48a1.21 1.21 0 0 0 0 2.42h7.11a1.21 1.21 0 0 0 0-2.42zm37.93 0h-7.11a1.21 1.21 0 0 0 0 2.42h7.11a1.21 1.21 0 0 0 0-2.42z"/></svg>