<svg version="1.0" xmlns="http://www.w3.org/2000/svg" width="512.000000pt" height="512.000000pt" viewBox="0 0 512.000000 512.000000" preserveAspectRatio="xMidYMid meet">
<g transform="translate(0.000000,512.000000) scale(0.100000,-0.100000)" stroke="none">
<path d="M3952 4463 c-11 -10 -465 -589 -1007 -1288 -543 -698 -990 -1273
-994 -1277 -3 -4 -112 94 -241 219 -694 665 -624 603 -668 603 -40 0 -45 -5
-289 -261 -136 -143 -254 -273 -262 -289 -8 -16 -11 -39 -7 -54 4 -16 270
-279 747 -738 408 -392 751 -718 763 -725 38 -22 65 -15 111 30 33 32 2124
2709 2472 3165 73 95 79 125 36 172 -16 16 -151 126 -302 245 -292 229 -310
240 -359 198z"/>
</g>
</svg>
