<svg data-name="Layer 1" xmlns="http://www.w3.org/2000/svg" viewBox="0 0 64 64"><title>New_icon_set_simple_new2</title><path class="cls-1" d="M53.91 0h-43a6 6 0 0 0-6 5.93v52.14a6 6 0 0 0 6 5.93h43a6 6 0 0 0 6-5.93V5.93a6 6 0 0 0-6-5.93zM14.45 2.37h13.16m-16.74 0h43a3.58 3.58 0 0 1 3.63 3.56v8.3H7.28v-8.3a3.58 3.58 0 0 1 3.59-3.56zm43 59.26h-43a3.58 3.58 0 0 1-3.59-3.56V16.59H57.5v41.48a3.58 3.58 0 0 1-3.59 3.56z"/><path class="cls-1" d="M32.39 22.52a16.59 16.59 0 1 0 16.74 16.59 16.69 16.69 0 0 0-16.74-16.59zm0 2.37A14.3 14.3 0 0 1 46.68 38.1a5.05 5.05 0 0 0-2.07 1.34 2 2 0 0 1-3.33 0 4.4 4.4 0 0 0-6.64 0 2 2 0 0 1-3.32 0 4.39 4.39 0 0 0-6.64 0 2 2 0 0 1-3.32 0 4.48 4.48 0 0 0-3.26-1.51 14.31 14.31 0 0 1 14.29-13.04zm0 28.44a14.31 14.31 0 0 1-14.29-13 2.18 2.18 0 0 1 1.6.85 4.39 4.39 0 0 0 6.64 0 2 2 0 0 1 3.32 0 4.39 4.39 0 0 0 6.64 0 2 2 0 0 1 3.33 0 4.4 4.4 0 0 0 6.64 0l.35-.32a14.32 14.32 0 0 1-14.23 12.47z"/></svg>