<svg width="15" height="16" viewBox="0 0 15 16" fill="none" xmlns="http://www.w3.org/2000/svg">
<path d="M10.1828 2.11908V0H4.62141V2.11908H0V3.28554H1.37076L2.66318 15.3001C2.70235 15.6889 3.03525 16 3.44647 16H11.3577C11.7493 16 12.1018 15.7084 12.141 15.3001L13.4334 3.28554H15V2.11908H10.1828ZM5.79634 1.16646H9.02741V2.11908H5.79634V1.16646ZM5.28721 13.2588C4.95431 13.2782 4.68016 13.0255 4.66057 12.7145L4.26893 5.54071C4.24935 5.21021 4.50392 4.93803 4.81723 4.91859C5.15013 4.89915 5.42428 5.15188 5.44386 5.46294L5.83551 12.6367C5.85509 12.9672 5.60052 13.2394 5.28721 13.2588ZM7.98955 12.6756C7.98955 13.0061 7.73499 13.2588 7.40209 13.2588C7.06919 13.2588 6.81462 13.0061 6.81462 12.6756V5.48238C6.81462 5.15188 7.06919 4.89915 7.40209 4.89915C7.73499 4.89915 7.98955 5.15188 7.98955 5.48238V12.6756ZM10.1436 12.695C10.124 13.0255 9.84987 13.2588 9.51697 13.2394C9.18407 13.2199 8.94909 12.9478 8.96867 12.6173L9.36031 5.4435C9.37989 5.113 9.65405 4.87971 9.98694 4.89915C10.3198 4.91859 10.5548 5.19077 10.5352 5.52126L10.1436 12.695Z" />
</svg>
