<svg data-name="Layer 1" xmlns="http://www.w3.org/2000/svg" viewBox="0 0 64 64"><title>New_icon_set_simple_new2</title><path class="cls-1" d="M21.24 38.38A2.54 2.54 0 1 1 18.7 36a2.48 2.48 0 0 1 2.54 2.42zm26.7 0A2.54 2.54 0 1 1 45.4 36a2.48 2.48 0 0 1 2.54 2.42zm0 0"/><path class="cls-1" d="M64 37.35a7.26 7.26 0 0 0-6.17-7v-1.09C57.88 15.68 46.29 4.63 32 4.63S6.22 15.68 6.22 29.26v1.06a7.1 7.1 0 0 0 .09 14.08 14.23 14.23 0 0 0 7.76 11.93c4.14 2.22 10 3.3 18 3.3s13.83-1.08 18-3.3a14.23 14.23 0 0 0 7.72-11.93 7.27 7.27 0 0 0 6.26-7zm-61.35 0a4.67 4.67 0 0 1 3.57-4.45v8.9a4.67 4.67 0 0 1-3.52-4.45zm52.54 5.06c0 5.54-2.13 9.37-6.5 11.72-3.74 2-9.19 3-16.68 3s-12.94-1-16.68-3C11 51.79 8.87 48 8.87 42.41V29.26c0-10 7-18.44 16.52-21.18 7.27.09 11.15 5.1 11.15 8.72a5.17 5.17 0 0 1-5.28 5 3.88 3.88 0 0 1-4-3.78 2.84 2.84 0 0 1 2.9-2.77 1.26 1.26 0 1 0 0-2.52 5.43 5.43 0 0 0-5.55 5.29 6.47 6.47 0 0 0 6.61 6.3 7.76 7.76 0 0 0 7.93-7.56 10.6 10.6 0 0 0-3.69-7.54 13.45 13.45 0 0 0-3.12-2.11c12.64.16 22.87 10 22.87 22.1v13.2zm2.65-.62V32.9a4.57 4.57 0 0 1 0 8.9zm0 0"/><path class="cls-1" d="M40.61 43.54H23.49a1.29 1.29 0 0 0-1.32 1.26A9.67 9.67 0 0 0 32 54.23a9.67 9.67 0 0 0 9.88-9.42 1.29 1.29 0 0 0-1.32-1.26zM32 51.71a7.16 7.16 0 0 1-7.11-5.64h14.27A7.16 7.16 0 0 1 32 51.71zm0 0"/></svg>