<svg data-name="Layer 1" xmlns="http://www.w3.org/2000/svg" viewBox="0 0 64 64"><title>New_icon_set_simple_new2</title><path class="cls-1" d="M58.12 3.51H36.61a4.72 4.72 0 0 0-9.14 0H6a5.93 5.93 0 0 0-6 5.93V58a5.93 5.93 0 0 0 6 6h52.12A5.93 5.93 0 0 0 64 58V9.44a5.93 5.93 0 0 0-5.88-5.93zM32 2.33a2.37 2.37 0 1 1-2.33 2.37A2.37 2.37 0 0 1 32 2.33zM6 5.88h21.5a4.72 4.72 0 0 0 9.14 0h21.5a3.56 3.56 0 0 1 3.56 3.56v23.7H2.41V9.44A3.56 3.56 0 0 1 6 5.88zm52.15 55.7H6A3.56 3.56 0 0 1 2.41 58V35.51h59.26V58a3.56 3.56 0 0 1-3.55 3.59z"/><path class="cls-1" d="M16.63 42.62a1.18 1.18 0 0 0-1.19 1.19v3.56h-3.55v-3.56a1.19 1.19 0 1 0-2.37 0v9.48a1.19 1.19 0 1 0 2.37 0v-3.55h3.56v3.56a1.19 1.19 0 1 0 2.37 0v-9.49a1.18 1.18 0 0 0-1.19-1.19zM45.08 45a1.19 1.19 0 0 0 0-2.37h-3.56a1.18 1.18 0 0 0-1.19 1.19v9.48a1.18 1.18 0 0 0 1.19 1.19h3.56a1.19 1.19 0 0 0 0-2.37h-2.37v-2.38h2.37a1.19 1.19 0 0 0 0-2.37h-2.37V45h2.37zm9.48 7.11h-2.37v-8.3a1.19 1.19 0 1 0-2.37 0v9.48A1.18 1.18 0 0 0 51 54.48h3.56a1.19 1.19 0 1 0 0-2.37zm-17.78-9.49H32A1.19 1.19 0 0 0 32 45h1.19v8.3a1.19 1.19 0 1 0 2.37 0V45h1.19a1.19 1.19 0 1 0 .03-2.38zm-11.85 0c-2.28 0-4.74 1.85-4.74 5.93 0 3.89 2.38 5.93 4.74 5.93s4.74-2 4.74-5.93c0-4.07-2.46-5.93-4.74-5.93zm0 9.48c-1.4 0-2.37-1.46-2.37-3.56S23.49 45 24.93 45s2.37 1.4 2.37 3.56-.97 3.55-2.37 3.55zM28.2 19l1.94.71L29 21.27a1.18 1.18 0 1 0 1.9 1.41l1.1-1.57 1.16 1.56a1.19 1.19 0 0 0 1.9-1.42l-1.16-1.56 1.98-.69a1.19 1.19 0 0 0-.82-2.22l-1.84.68v-2.09a1.19 1.19 0 0 0-2.37 0v2.06L29 16.75a1.19 1.19 0 0 0-.8 2.25zm10.67 1.16l1.94.71-1.17 1.58a1.18 1.18 0 1 0 1.9 1.41l1.17-1.57 1.16 1.56a1.19 1.19 0 0 0 1.9-1.42l-1.16-1.56 1.94-.71a1.19 1.19 0 0 0-.82-2.22l-1.84.68v-2.07a1.19 1.19 0 1 0-2.37 0v2.06l-1.84-.68a1.19 1.19 0 0 0-.81 2.23zm10.66 2.37l1.94.71-1.17 1.58a1.18 1.18 0 1 0 1.9 1.41l1.17-1.57 1.16 1.56a1.19 1.19 0 0 0 1.9-1.42l-1.16-1.56 1.94-.71a1.19 1.19 0 0 0-.82-2.22l-1.83.69v-2.08a1.19 1.19 0 0 0-2.37 0V21l-1.84-.68a1.19 1.19 0 0 0-.82 2.21zm-42.66 0l1.94.71-1.17 1.58a1.18 1.18 0 1 0 1.9 1.41l1.17-1.57 1.16 1.56a1.19 1.19 0 0 0 1.9-1.42l-1.16-1.56 1.94-.71a1.19 1.19 0 0 0-.82-2.22l-1.84.69v-2.08a1.19 1.19 0 0 0-2.37 0V21l-1.84-.68a1.19 1.19 0 0 0-.81 2.21zm10.66-2.37l1.94.71-1.17 1.58a1.18 1.18 0 1 0 1.9 1.41l1.17-1.57 1.16 1.56a1.19 1.19 0 0 0 1.9-1.42l-1.16-1.56 1.94-.71a1.19 1.19 0 0 0-.82-2.22l-1.84.68v-2.07a1.19 1.19 0 1 0-2.37 0v2.06l-1.84-.68a1.19 1.19 0 0 0-.81 2.23z"/></svg>