<svg data-name="Layer 1" xmlns="http://www.w3.org/2000/svg" viewBox="0 0 64 64"><title>New_icon_set_simple_new2</title><path class="cls-1" d="M20.9 32.31a1.15 1.15 0 0 0 .78-.3 1.27 1.27 0 0 0 .11-1.74 14.51 14.51 0 0 1-.61-17.75 1.26 1.26 0 0 0-.23-1.72 1.15 1.15 0 0 0-1.66.24A17.05 17.05 0 0 0 20 31.89a1.16 1.16 0 0 0 .9.42zM43 10.68a1.26 1.26 0 0 0-.21 1.73 14.51 14.51 0 0 1-.53 17.85 1.27 1.27 0 0 0 .06 1.74 1.15 1.15 0 0 0 .78.3 1.16 1.16 0 0 0 .9-.42 17 17 0 0 0 .62-21 1.16 1.16 0 0 0-1.62-.2z"/><path class="cls-1" d="M10.41 21A22.77 22.77 0 0 1 15 7.22a1.26 1.26 0 0 0-.21-1.73 1.16 1.16 0 0 0-1.66.21 25.66 25.66 0 0 0 .61 31.38 1.17 1.17 0 0 0 .91.44 1.15 1.15 0 0 0 .77-.29 1.26 1.26 0 0 0 .14-1.74A23 23 0 0 1 10.41 21zM50.89 5.69a1.15 1.15 0 0 0-1.66-.21A1.26 1.26 0 0 0 49 7.2a23.12 23.12 0 0 1-.64 28.4 1.27 1.27 0 0 0 .13 1.74 1.15 1.15 0 0 0 1.67-.13 25.66 25.66 0 0 0 .73-31.52z"/><path class="cls-1" d="M2.37 21A31.24 31.24 0 0 1 8.69 2a1.26 1.26 0 0 0-.2-1.74 1.15 1.15 0 0 0-1.66.21A33.75 33.75 0 0 0 0 21a34.06 34.06 0 0 0 7.55 21.45 1.15 1.15 0 0 0 1.67.15 1.26 1.26 0 0 0 .14-1.74A31.54 31.54 0 0 1 2.37 21zM57.21.53a1.15 1.15 0 0 0-1.66-.21 1.26 1.26 0 0 0-.2 1.68 31.25 31.25 0 0 1 6.28 19 31.54 31.54 0 0 1-7 19.86 1.26 1.26 0 0 0 .14 1.74 1.15 1.15 0 0 0 .76.29 1.16 1.16 0 0 0 .91-.44A34.07 34.07 0 0 0 64 21 33.75 33.75 0 0 0 57.21.53zM36 28.08A8.25 8.25 0 0 0 39.88 21 8.05 8.05 0 0 0 32 12.81 8.05 8.05 0 0 0 24.12 21 8.25 8.25 0 0 0 28 28.08L17.47 62.39a1.24 1.24 0 0 0 .77 1.55 1.15 1.15 0 0 0 .36.06 1.19 1.19 0 0 0 1.13-.86l2-6.39H42.3l2 6.39a1.19 1.19 0 0 0 1.1.86 1.15 1.15 0 0 0 .36-.06 1.24 1.24 0 0 0 .77-1.55zm-4-12.8A5.73 5.73 0 1 1 26.49 21 5.63 5.63 0 0 1 32 15.27zm0 13.92a7.59 7.59 0 0 0 1.75-.2l4 13h-11.5l4-13a7.59 7.59 0 0 0 1.75.2zm-9.54 25.1l3-9.85h13l3 9.85h-19z"/></svg>