<svg data-name="Layer 1" xmlns="http://www.w3.org/2000/svg" viewBox="0 0 64 64"><title>New_icon_set_simple_new2</title><path class="cls-1" d="M32 0a32 32 0 1 0 32 32A32 32 0 0 0 32 0zm0 61.63A29.63 29.63 0 1 1 61.63 32 29.66 29.66 0 0 1 32 61.63z"/><path class="cls-1" d="M31.41 24.89a5.33 5.33 0 1 0-5.33-5.33 5.34 5.34 0 0 0 5.33 5.33zm0-8.3a3 3 0 1 1-3 3 3 3 0 0 1 3-3zm5.33 24.62v-14h-13v2.37a4 4 0 0 1 3.56 2.59v9.11a8.51 8.51 0 0 1-2.75 1.4l-.85.32v4.41h16.6v-4.35l-.73-.3a12.94 12.94 0 0 1-2.83-1.55zM37.93 45H26.07v-.31c1.77-.69 3.56-1.74 3.56-3.2v-9.68l-.06-.18a7.33 7.33 0 0 0-1.11-2h5.91v11.85c0 .43 0 1.53 3.56 3.15V45z"/></svg>