<svg data-name="Layer 1" xmlns="http://www.w3.org/2000/svg" viewBox="0 0 64 64"><title>New_icon_set_simple_new2</title><path class="cls-1" d="M59 2a3 3 0 0 1 3 3v54a3 3 0 0 1-3 3H5a3 3 0 0 1-3-3V5a3 3 0 0 1 3-3h54m0-2H5a5 5 0 0 0-5 5v54a5 5 0 0 0 5 5h54a5 5 0 0 0 5-5V5a5 5 0 0 0-5-5z"/><path class="cls-1" d="M11.26 11.5V19h-1.5v8h1.5v9.77h-1.5v8h1.5v7.73h41.5v-41h-41.5zm39.48 39H13.28v-5.76h1.54v-8h-1.54V27h1.54v-8h-1.54v-5.5h37.45v37z"/><path class="cls-1" d="M32 28a4 4 0 1 1-4 4 4 4 0 0 1 4-4m0-2a6 6 0 1 0 6 6 6 6 0 0 0-6-6z"/></svg>