<svg data-name="Layer 1" xmlns="http://www.w3.org/2000/svg" viewBox="0 0 64 64"><title>New_icon_set_simple_new2</title><path class="cls-1" d="M33.24 56.94A20.15 20.15 0 1 1 53.39 36.8a20.17 20.17 0 0 1-20.15 20.14zm0-37.93A17.78 17.78 0 1 0 51 36.8 17.8 17.8 0 0 0 33.24 19z"/><path class="cls-1" d="M33.24 51a14.13 14.13 0 0 1-10.06-4.17 1.19 1.19 0 1 1 1.68-1.68 11.85 11.85 0 1 0 16.08-17.4A1.18 1.18 0 1 1 42.47 26a14.22 14.22 0 0 1-9.23 25zM20.2 38a1.18 1.18 0 0 1-1.2-1.2 14.24 14.24 0 0 1 14.24-14.23 1.19 1.19 0 1 1 0 2.37A11.87 11.87 0 0 0 21.39 36.8 1.18 1.18 0 0 1 20.2 38zM7.17 21.39a10.8 10.8 0 0 1-3.84-1.19l-.5-.2a5.42 5.42 0 0 1-2.78-4.54V3.61a1.19 1.19 0 0 1 2.37 0v11.85a3 3 0 0 0 1.47 2.37l.5.25a9.41 9.41 0 0 0 2.78.92 9.42 9.42 0 0 0 2.78-.94l.5-.25a3 3 0 0 0 1.47-2.37V3.61a1.19 1.19 0 0 1 2.37 0v11.85A5.42 5.42 0 0 1 11.5 20l-.5.2a10.8 10.8 0 0 1-3.83 1.19z"/><path class="cls-1" d="M7.17 21.39A1.18 1.18 0 0 1 6 20.2V3.61a1.19 1.19 0 0 1 2.37 0V20.2a1.18 1.18 0 0 1-1.2 1.19z"/><path class="cls-1" d="M7.17 64.05c-1.94 0-4.74-3-4.74-8.3 0-3.24 1-8.35 1.95-13.29A73.59 73.59 0 0 0 6 32.05V21.39a1.19 1.19 0 0 1 2.37 0v10.66c0 .81.57 3.86 1.17 7.1 1.06 5.73 2.39 12.86 2.39 16.6-.02 5.35-2.83 8.3-4.76 8.3zM7.26 40c-.18 1-.37 1.94-.56 2.93-.94 4.83-1.9 9.82-1.9 12.84 0 4.08 1.91 5.84 2.4 5.93.43-.08 2.34-1.85 2.34-5.93 0-3.44-1.29-10.48-2.28-15.77zM60.5 64.05c-2.86 0-5.93-1.56-5.93-5.93a34.33 34.33 0 0 1 .54-5.25 41.43 41.43 0 0 0 .64-6.6v-7a2.58 2.58 0 0 1 .56-1.93 3.56 3.56 0 0 1 1.25-1c-1.15-2-3-6.48-3-15C54.57 2 62.3.15 62.63.08a1.19 1.19 0 0 1 1.43 1.16v58.07c-.01 1.69-.75 4.74-3.56 4.74zM61.68 38c-2.54 0-3.29.58-3.46.76a.33.33 0 0 0-.12.22c.07.15 0 0 0 .2v7.11a44 44 0 0 1-.67 7 32.53 32.53 0 0 0-.52 4.89c0 2.94 1.93 3.56 3.56 3.56 1.12 0 1.19-2.35 1.19-2.37V38zm0-34.65C59.86 5 56.94 9.53 56.94 21.39c0 9.25 2.29 13.27 3 14.31a15.15 15.15 0 0 1 1.72-.09V3.33z"/></svg>