<svg data-name="Layer 1" xmlns="http://www.w3.org/2000/svg" viewBox="0 0 64 64"><title>New_icon_set_simple_new2</title><path class="cls-1" d="M59 2a3 3 0 0 1 3 3v54a3 3 0 0 1-3 3H5a3 3 0 0 1-3-3V5a3 3 0 0 1 3-3h54m0-2H5a5 5 0 0 0-5 5v54a5 5 0 0 0 5 5h54a5 5 0 0 0 5-5V5a5 5 0 0 0-5-5z"/><path class="cls-1" d="M21.41 14.36a61.17 61.17 0 0 1 9.74-.73c5 0 8.69 1.12 11 3.14a10.15 10.15 0 0 1 3.44 7.9 10.87 10.87 0 0 1-3 8.07c-2.74 2.74-7.06 4.14-12 4.14a18.19 18.19 0 0 1-4.08-.34v15.13h-5.1V14.36zm5.07 18.2a17.71 17.71 0 0 0 4.2.39c6.12 0 9.86-2.91 9.86-8s-3.74-7.45-9.28-7.45a22.09 22.09 0 0 0-4.78.39v14.68z"/></svg>