<svg data-name="Layer 1" xmlns="http://www.w3.org/2000/svg" viewBox="0 0 64 64"><title>New_icon_set_simple_new2</title><path class="cls-1" d="M13.13 13.28h16.59a1.21 1.21 0 0 0 0-2.42H13.13a1.21 1.21 0 0 0 0 2.42zM7.2 24.15h22.52a1.21 1.21 0 0 0 0-2.42H7.2a1.21 1.21 0 0 0 0 2.42zm23.7 9.66a1.2 1.2 0 0 0-1.19-1.21H1.28a1.21 1.21 0 0 0 0 2.42h28.44a1.2 1.2 0 0 0 1.18-1.21z"/><path class="cls-1" d="M53.62 7.26A11.44 11.44 0 0 1 45 .75a1.21 1.21 0 0 0-.21-.38 1.17 1.17 0 0 0-.46-.29 1.16 1.16 0 0 0-.38-.08 1.09 1.09 0 0 0-.16 0 1.1 1.1 0 0 0-.28.05 1.17 1.17 0 0 0-.31.2l-.08.06a1.22 1.22 0 0 0-.12.27 1.22 1.22 0 0 0-.1.15v.11a1.21 1.21 0 0 0-.07.35v45c-.09 2-.6 2.72-.88 2.87a.23.23 0 0 1-.25 0 19.26 19.26 0 0 0-10.74-3c-8.06 0-14.37 3.94-14.37 9s6.31 9 14.37 9c7.53 0 13.53-3.49 14.19-8.09a1.2 1.2 0 0 0 .07-.37V15.73a10.28 10.28 0 0 0 7.11 2.38c5.34 0 7.73 5.74 9 8.82.23.55.43 1 .6 1.38a1.18 1.18 0 0 0 1.33.64 1.2 1.2 0 0 0 .91-1.18C64.09 19.43 64.09 9 53.62 7.26zM30.86 61.58c-6.51 0-12-3-12-6.54s5.5-6.54 12-6.54a16.89 16.89 0 0 1 9.41 2.5 2.57 2.57 0 0 0 2.49.24V55c-.01 3.6-5.45 6.58-11.9 6.58zM52.24 15.7c-5.18 0-7.11-3-7.11-4.83V5.18a13.7 13.7 0 0 0 8.1 4.46c6.25 1.06 7.92 5.69 8.35 12.43-1.77-3.12-4.58-6.37-9.34-6.37z"/></svg>