<svg xmlns="http://www.w3.org/2000/svg" viewBox="0 0 64 64"><path d="M61.3 9.9H2.7C1.2 9.9 0 11.1 0 12.6v38.8C0 52.7 1.2 54 2.7 54h58.5c1.5 0 2.7-1.2 2.7-2.7V12.5c.1-1.5-1.1-2.6-2.6-2.6zM41.7 33.8c5 3.3 17.8 13.2 17.8 13.2.5.3.5 1.2.3 1.7-.3.5-1 .8-1.6.5 0 0-13.6-9.8-18.8-13.4-.3-.2-.5 0-.5 0l-5.7 4.6c-.3.3-.7.4-1.2.4-.4 0-.8-.1-1.2-.4L25 35.8s-.2-.2-.4 0C19.5 39.4 5.9 49.2 5.9 49.2c-.5.3-1.5 0-1.7-.5-.3-.5-.2-1.4.3-1.7 0 0 12.8-9.8 17.7-13.2.3-.2 0-.5 0-.5L4 17.1c-.7-.5-.8-1.5-.4-2.2.2-.4.7-.7 1.1-.7.3 0 .7.1.9.3L31.3 37c.2.1.4.2.6.2.2 0 .4-.1.6-.2l25.7-22.4c.3-.2.6-.3.9-.3.5 0 .9.2 1.1.7.4.7.2 1.6-.4 2.2l-18 16.3c0-.1-.3.1-.1.3z"/></svg>