<svg data-name="Layer 1" xmlns="http://www.w3.org/2000/svg" viewBox="0 0 64 64"><title>New_icon_set_simple_new2</title><path class="cls-1" d="M61.27 32L40.58 21.1a12.54 12.54 0 0 0-5-1.25h-2.39v-4.17l4-5.58a1.28 1.28 0 0 0 .1-.17v-.07a6.18 6.18 0 1 0-11.21-3.48 1.19 1.19 0 1 0 2.37 0 3.78 3.78 0 1 1 6.88 2.19l-.09.15L31 14.59a1.21 1.21 0 0 0-.23.7v4.56h-2.33a12.54 12.54 0 0 0-5 1.25L2.73 32A5.59 5.59 0 0 0 0 36.61V39a3.58 3.58 0 0 0 3.56 3.6h7.11v18a3.58 3.58 0 0 0 3.56 3.59h35.55a3.58 3.58 0 0 0 3.56-3.59v-18h7.11A3.58 3.58 0 0 0 64 39v-2.39A5.59 5.59 0 0 0 61.27 32zM51 60.56a1.19 1.19 0 0 1-1.19 1.2H14.22a1.19 1.19 0 0 1-1.22-1.2V39a1.19 1.19 0 0 1 1.19-1.2h35.59A1.19 1.19 0 0 1 51 39v21.56zM61.63 39a1.19 1.19 0 0 1-1.19 1.2h-7.11V39a3.58 3.58 0 0 0-3.56-3.59H14.22A3.58 3.58 0 0 0 10.67 39v1.2H3.56A1.19 1.19 0 0 1 2.37 39v-2.39a3.18 3.18 0 0 1 1.46-2.44l20.69-10.95a10.29 10.29 0 0 1 3.92-1h7.11a10.29 10.29 0 0 1 3.92 1l20.7 10.95a3.18 3.18 0 0 1 1.46 2.44V39z"/></svg>