<svg data-name="Layer 1" xmlns="http://www.w3.org/2000/svg" viewBox="0 0 64 64"><title>New_icon_set_simple_new2</title><path class="cls-1" d="M41.33 42a1 1 0 0 0 0-2H18.5v-8h21.76c.55 0 5.33-.45 5.33-1s-.59-1-5.75-1H7.5a3 3 0 0 0-3 3v6a3 3 0 0 0 3 3h33.83zM6.5 39v-6a1 1 0 0 1 1-1h9v8h-9a1 1 0 0 1-1-1z"/><path class="cls-1" d="M47.5 30h-9a1 1 0 0 0 0 2h9a1 1 0 0 1 1 1v6a1 1 0 0 1-1 1h-9a1 1 0 0 0 0 2h9a3 3 0 0 0 3-3v-6a3 3 0 0 0-3-3zm8.22-12.47a5.9 5.9 0 0 0 2.09-4.72 5.4 5.4 0 0 0-2.24-3.64 1 1 0 0 0-1.11 1.66A3.39 3.39 0 0 1 55.82 13a4 4 0 0 1-1.51 3.11c-3.8 3.79-1.66 7.94 0 9.6a1 1 0 1 0 1.41-1.41c-.14-.15-3.34-3.43 0-6.77zM53.5 30a1 1 0 0 0-1 1v10a1 1 0 0 0 2 0V31a1 1 0 0 0-1-1zm4 0a1 1 0 0 0-1 1v10a1 1 0 0 0 2 0V31a1 1 0 0 0-1-1z"/></svg>