<svg data-name="Layer 1" xmlns="http://www.w3.org/2000/svg" viewBox="0 0 64 64"><title>New_icon_set_simple_new2</title><path class="cls-1" d="M64 29.45a8.67 8.67 0 0 0-8.72-8.6h-.68V10.5a5.9 5.9 0 0 0-5.93-5.85H15.52a6 6 0 0 0-6 5.85v10.39h-.78A8.67 8.67 0 0 0 0 29.45a8.54 8.54 0 0 0 3.56 6.91v13.93a5.9 5.9 0 0 0 5.94 5.85v2.34a1.19 1.19 0 0 0 2.37 0v-2.34a5.93 5.93 0 0 0 3.93-1.5 1.19 1.19 0 0 0 .82.33h30.86a1.19 1.19 0 0 0 .82-.33 5.93 5.93 0 0 0 3.93 1.5v2.34a1.19 1.19 0 0 0 2.37 0v-2.34a5.9 5.9 0 0 0 5.93-5.85v-14A8.54 8.54 0 0 0 64 29.45zM11.87 10.5A3.63 3.63 0 0 1 15.52 7h33.14a3.54 3.54 0 0 1 3.56 3.51V21a1.13 1.13 0 0 0 .08.37 9.53 9.53 0 0 0-6 9v2.37a5.93 5.93 0 0 0-3.56-1.2H21.36a5.93 5.93 0 0 0-3.56 1.2v-3.52a8.44 8.44 0 0 0-5.93-7.84V10.5zm5.93 39.79v-8.22a5.93 5.93 0 0 0 3.56 1.2h21.37a5.93 5.93 0 0 0 3.56-1.2v8.22a5.74 5.74 0 0 0 .5 2.34H17.3a5.74 5.74 0 0 0 .5-2.34zm0-12.87a3.54 3.54 0 0 1 3.56-3.51h21.37a3.51 3.51 0 1 1 0 7H21.36a3.54 3.54 0 0 1-3.56-3.49zM11.87 53.8H9.5a3.54 3.54 0 0 1-3.56-3.51v-12.7a8.78 8.78 0 0 0 2.78.41 1.17 1.17 0 1 0 0-2.34 6.26 6.26 0 1 1 0-12.51c3.7 0 6.71 2.71 6.71 6v21.14a3.54 3.54 0 0 1-3.56 3.51zm46.29-3.51a3.54 3.54 0 0 1-3.56 3.51h-2.38a3.54 3.54 0 0 1-3.56-3.51v-19.9c0-3.9 3-7.2 6.62-7.2a6.26 6.26 0 1 1 0 12.51 1.17 1.17 0 1 0 0 2.34 8.77 8.77 0 0 0 2.88-.49v12.74z"/></svg>