<svg data-name="Layer 1" xmlns="http://www.w3.org/2000/svg" viewBox="0 0 64 64"><title>New_icon_set_simple_new2</title><path class="cls-1" d="M32.14.15A31.85 31.85 0 1 0 64 32 31.85 31.85 0 0 0 32.14.15zm25 16.24a29.29 29.29 0 0 1 4.09 10.84l-.16-.23a37.92 37.92 0 0 1-11.9 5.76v-.75c.71-7.8 5.83-13.53 7.97-15.62zm-1.35-2c-2.2 2-8.15 8.35-8.93 17.37 0 .52-.07 1-.07 1.56a39.62 39.62 0 0 1-5.61.79c.64-17.42-2-27.82-3-31a29.55 29.55 0 0 1 17.61 11.3zM36 2.77l-.39.15c.05.15 3.88 10.9 3.15 31.31a47.15 47.15 0 0 1-7.8-.6 23.23 23.23 0 0 0 .1-4.47C30.14 17.3 20.39 9.31 16.85 6.79A29.3 29.3 0 0 1 36 2.77zM14.75 8.2c2.2 1.49 13 9.39 14 21.14a20.81 20.81 0 0 1-.07 3.86A70.17 70.17 0 0 1 4.17 22.66 29.61 29.61 0 0 1 14.75 8.2zM2.64 32a29.44 29.44 0 0 1 .84-7 72.83 72.83 0 0 0 24.79 10.53c-1.45 6.66-6.05 13.39-13.75 20.1A29.47 29.47 0 0 1 2.64 32zm13.89 25c7.85-7 12.56-14 14.07-21.06a49.81 49.81 0 0 0 7.78.64h.29a177.79 177.79 0 0 1-3.1 24.69h.05a29.62 29.62 0 0 1-3.5.21A29.31 29.31 0 0 1 16.53 57zM38 60.9a181.9 181.9 0 0 0 3-24.39 42 42 0 0 0 5.8-.75c.49 5.37 2.93 10.69 7.26 15.87A29.5 29.5 0 0 1 38 60.9zm17.66-11.13c-3.93-4.77-6.09-9.68-6.46-14.56a40.08 40.08 0 0 0 12.32-5.65c.07.81.11 1.62.11 2.45a29.34 29.34 0 0 1-5.97 17.76z"/></svg>