<svg data-name="Layer 1" xmlns="http://www.w3.org/2000/svg" viewBox="0 0 64 64"><title>New_icon_set_simple_new2</title><path class="cls-1" d="M13.97 56.85h8.47v4.83h-8.47zm28.3 0h7.89v5.18h-7.89zm4.54-13.99l-5.4 1.87c-2 .68-3 2.35-3 4.7 0 1.56 1.45 2.65 3.44 2.65h5.32A2.89 2.89 0 0 0 50.33 49v-2.38c0-1.05 0-2.5-.82-3.38a2.39 2.39 0 0 0-2.7-.38zM48 46.6V49c0 .49 0 .72-.83.72h-5.28a1.57 1.57 0 0 1-1.15-.32 2.11 2.11 0 0 1 1.39-2.4l5.46-1.89a1.48 1.48 0 0 1 .33-.1A6.53 6.53 0 0 1 48 46.6zm-25.82-1.87L17 42.88a2.26 2.26 0 0 0-2.69.34c-.77.83-.73 2.12-.69 3.16V49c0 .77 0 3.11 2.7 3.11h5.32c2 0 3.4-1.09 3.44-2.65.1-2.38-.95-4.05-2.9-4.73zm-.49 5h-5.65A2.5 2.5 0 0 1 16 49v-2.66A8 8 0 0 1 16 45l.27.09L21.44 47c.67.23 1.43.71 1.39 2.38a1.56 1.56 0 0 1-1.14.32z"/><path class="cls-1" d="M56.06 13.94h-1.14v-3.57a8.19 8.19 0 0 0-5.17-7.48C37.3-1 26.67-1 14.21 2.89a8.06 8.06 0 0 0-5.13 7.48v3.58H7.94a3.51 3.51 0 0 0-3.44 3.57v10.73a3.51 3.51 0 0 0 3.44 3.58h1.14v21.63a5.57 5.57 0 0 0 3.44 5.41v1.56A3.51 3.51 0 0 0 16 64h3.4a3.51 3.51 0 0 0 3.44-3.58v-1.19h18.33v1.19A3.51 3.51 0 0 0 44.6 64H48a3.51 3.51 0 0 0 3.44-3.58v-1.64a5.72 5.72 0 0 0 3.44-5.32V31.82h1.15a3.51 3.51 0 0 0 3.44-3.58V17.52a3.51 3.51 0 0 0-3.41-3.58zM14.87 5.17a54 54 0 0 1 34.22 0 5.81 5.81 0 0 1 3.5 4.83 7.81 7.81 0 0 0-4-1.94c-2.13-.31-4.37-.56-6.86-.77a1.08 1.08 0 0 0-.81.26 7.64 7.64 0 0 0-.8.81 1.72 1.72 0 0 1-1.36.86H25a1.2 1.2 0 0 1-1-.62 5.54 5.54 0 0 0-1.27-1.12 1.11 1.11 0 0 0-.73-.2c-2.41.21-4.55.45-6.55.74a7.84 7.84 0 0 0-4.06 2 5.7 5.7 0 0 1 3.48-4.85zm35.21 51.58a1.18 1.18 0 0 0-.89 1.16v2.52A1.17 1.17 0 0 1 48 61.62h-3.4a1.17 1.17 0 0 1-1.15-1.19V58a1.17 1.17 0 0 0-1.15-1.19H21.69A1.17 1.17 0 0 0 20.54 58v2.38a1.17 1.17 0 0 1-1.15 1.19H16a1.17 1.17 0 0 1-1.15-1.19V58a1.18 1.18 0 0 0-.94-1.17 3.15 3.15 0 0 1-2.49-3.32v-18a7.67 7.67 0 0 0 4 1.93 111.74 111.74 0 0 0 16.5 1.24 111.84 111.84 0 0 0 16.51-1.24 8.16 8.16 0 0 0 4.24-2v18a3.29 3.29 0 0 1-2.59 3.31zm7.13-28.5a1.17 1.17 0 0 1-1.15 1.19h-1.14v-8.35a1.15 1.15 0 1 0-2.29 0v9.46c0 1.84-1.84 4.11-4.57 4.53a108.37 108.37 0 0 1-32.35 0 4.92 4.92 0 0 1-4.33-4.53v-9.46a1.15 1.15 0 1 0-2.29 0v8.34H7.94a1.17 1.17 0 0 1-1.15-1.19V17.52a1.17 1.17 0 0 1 1.15-1.19h2.29a1.17 1.17 0 0 0 1.15-1.19v-.19a5.07 5.07 0 0 1 4.42-4.57c1.84-.27 3.81-.49 6-.69a5.18 5.18 0 0 1 .49.5A3.38 3.38 0 0 0 25 11.56h13.72a3.87 3.87 0 0 0 3-1.62l.28-.27c2.25.2 4.29.43 6.22.71a5.05 5.05 0 0 1 4.41 4.57v.19a1.17 1.17 0 0 0 1.15 1.19h2.29a1.17 1.17 0 0 1 1.15 1.19v10.73z"/></svg>