<svg data-name="Layer 1" xmlns="http://www.w3.org/2000/svg" viewBox="0 0 64 64"><title>New_icon_set_simple_new2</title><path class="cls-1" d="M29.55 11.42l-.11-.58a1.2 1.2 0 0 0-1-1c-2.75-.36-6.27 1.49-8.72 4.56-1.8 2.26-6.09 3.83-9.27 3.33a14.48 14.48 0 0 0-2.24-.18 12.16 12.16 0 0 0-7.8 2.67 1.19 1.19 0 0 0-.25 1.45L21 60.09A8 8 0 0 0 27.87 64a7.18 7.18 0 0 0 2.32-.37l1-.35a7.92 7.92 0 0 0 5.1-8.39zM30.43 61l-1 .35a4.77 4.77 0 0 1-1.54.25 5.55 5.55 0 0 1-4.77-2.66L2.77 21.46A10.43 10.43 0 0 1 8.19 20a12 12 0 0 1 1.87.15c4.09.65 9.18-1.25 11.53-4.2a9.47 9.47 0 0 1 5.67-3.68l6.69 43A5.51 5.51 0 0 1 30.43 61z"/><path class="cls-1" d="M25 43.65a3.35 3.35 0 0 0-1.08.18c-1.4.48-2.35 1.8-2.67 3.74a11.82 11.82 0 0 0 .61 5.63c1.28 3.73 3.88 6.34 6.32 6.34a3.35 3.35 0 0 0 1.08-.18c1.4-.48 2.35-1.8 2.67-3.74a11.82 11.82 0 0 0-.58-5.62c-1.28-3.75-3.88-6.35-6.35-6.35zm4.56 11.58a2.26 2.26 0 0 1-1.08 1.87c-1.12.38-3.25-1.48-4.35-4.67a9.56 9.56 0 0 1-.48-4.43 2.26 2.26 0 0 1 1.08-1.87.93.93 0 0 1 .3 0c1.17 0 3 1.8 4 4.72a9.56 9.56 0 0 1 .56 4.37zM12.43 25.06a1.2 1.2 0 0 0-1.61-.53 1.19 1.19 0 0 0-.54 1.6l7.36 14.65a1.2 1.2 0 0 0 2.15-1.07zM26.44 38.6h.22a1.2 1.2 0 0 0 1-1.39l-3.09-16.3a1.2 1.2 0 0 0-2.36.44l3.09 16.3a1.2 1.2 0 0 0 1.14.95zM63.37.69C60.94-.6 56.93-.05 53.6 1.95a9.56 9.56 0 0 1-4.77 1.13 10.58 10.58 0 0 1-5.09-1.22A14.78 14.78 0 0 0 36.54 0a12.8 12.8 0 0 0-3.47.44 1.19 1.19 0 0 0-.83 1.32l6.59 43.43a8 8 0 0 0 7.39 6.49h1.26A7.91 7.91 0 0 0 55 45.6l8.9-43.08.1-.58a1.19 1.19 0 0 0-.63-1.25zm-10.7 44.43a5.51 5.51 0 0 1-5.19 4.19h-1.2a5.54 5.54 0 0 1-5.08-4.46L34.78 2.5a12.41 12.41 0 0 1 7.79 1.44 13 13 0 0 0 6.27 1.53 12 12 0 0 0 6-1.48c2.21-1.33 4.84-1.92 6.6-1.49z"/><path class="cls-1" d="M47.22 30.91c-2.8 0-5 3.42-5.13 8s1.93 8.24 4.78 8.24H47c2.8 0 5-3.4 5.13-8s-1.97-8.15-4.91-8.24zM46.86 45c-1.08-.05-2.46-2.29-2.37-5.88s1.65-5.75 2.75-5.75 2.48 2.28 2.38 5.89S48.06 45 46.86 45zm-3.28-17.44h.17a1.2 1.2 0 0 0 1-1.35l-2.38-16.9a1.2 1.2 0 0 0-2.37.33l2.4 16.89a1.2 1.2 0 0 0 1.18 1.03zm11.2-19.43a1.21 1.21 0 0 0-1.4 1l-3.26 17.7a1.19 1.19 0 0 0 1 1.39h.22a1.2 1.2 0 0 0 1.18-1l3.22-17.7a1.19 1.19 0 0 0-.96-1.39z"/></svg>